<svg version="1.1" id="Layer_1" xmlns="http://www.w3.org/2000/svg" xmlns:xlink="http://www.w3.org/1999/xlink" x="0px" y="0px"
	 viewBox="0 0 24 24" style="enable-background:new 0 0 24 24;" xml:space="preserve">
<g>
	<path fill="#FFFFFF" d="M10,21H6c-2.2,0-4-1.8-4-4V7c0-2.2,1.8-4,4-4h4c2.2,0,4,1.8,4,4v1c0,0.6-0.4,1-1,1c-0.6,0-1-0.4-1-1V7
		c0-1.1-0.9-2-2-2H6C4.9,5,4,5.9,4,7v10c0,1.1,0.9,2,2,2h4c1.1,0,2-0.9,2-2v-1c0-0.6,0.4-1,1-1c0.6,0,1,0.4,1,1v1
		C14,19.2,12.2,21,10,21z M17,17c-0.3,0-0.5-0.1-0.7-0.3c-0.4-0.4-0.4-1,0-1.4l2.3-2.3H7c-0.6,0-1-0.4-1-1s0.4-1,1-1h11.6l-2.3-2.3
		c-0.4-0.4-0.4-1,0-1.4s1-0.4,1.4,0l4,4c0.1,0.1,0.2,0.2,0.2,0.3c0,0.1,0.1,0.2,0.1,0.4l0,0c0,0,0,0,0,0l0,0c0,0.1,0,0.3-0.1,0.4
		c0,0.1-0.1,0.2-0.2,0.3l-4,4C17.5,16.9,17.3,17,17,17z"/>
</g>
</svg>
